<svg xmlns="http://www.w3.org/2000/svg" width="429.00000000000006" height="105.58684093929996"
     viewBox="0 0 410.3636363636364 101" class="css-1j8o68f">
    <defs id="SvgjsDefs1394"></defs>
    <g id="SvgjsG1395" transform="matrix(1,0,0,1,0,0)" fill="#a9d2ff">
        <rect xmlns="http://www.w3.org/2000/svg" width="104" height="101" rx="10" ry="10"></rect>
    </g>
    <g id="SvgjsG1396"
       transform="matrix(0.7070707070707071,0,0,0.7070707070707071,16.464646464646464,15.3495961969549)" fill="#6730ec">
        <g xmlns="http://www.w3.org/2000/svg">
            <path d="M34.339,34.648C18.135,34.648,5,47.783,5,63.987C5,80.19,18.135,93.326,34.339,93.326   c16.204,0,29.339-13.136,29.339-29.339C63.678,47.783,50.543,34.648,34.339,34.648z M30.156,46.769   c-4.99,1.207-9.208,4.528-11.572,9.11c-0.524,1.016-1.556,1.599-2.626,1.599c-0.456,0-0.918-0.106-1.352-0.329   c-1.449-0.747-2.018-2.528-1.27-3.977c3.149-6.105,8.773-10.531,15.431-12.142c1.581-0.383,3.179,0.59,3.564,2.175   C32.715,44.789,31.741,46.385,30.156,46.769z"></path>
            <path d="M76.652,13.612c-10.134,0-18.348,8.215-18.348,18.348c0,10.133,8.215,18.348,18.348,18.348S95,42.094,95,31.96   C95,21.827,86.785,13.612,76.652,13.612z M74.036,21.192c-3.121,0.755-5.759,2.832-7.237,5.697c-0.328,0.636-0.973,1-1.642,1   c-0.285,0-0.574-0.066-0.845-0.206c-0.906-0.467-1.262-1.581-0.794-2.487c1.969-3.818,5.487-6.586,9.65-7.593   c0.989-0.239,1.988,0.369,2.229,1.36C75.636,19.954,75.027,20.953,74.036,21.192z"></path>
            <path d="M43.922,30.541c6.618,0,11.982-5.365,11.982-11.982c0-6.618-5.365-11.982-11.982-11.982S31.94,11.941,31.94,18.559   C31.94,25.177,37.305,30.541,43.922,30.541z M35.345,14.142c1.286-2.493,3.583-4.301,6.302-4.959   c0.646-0.156,1.298,0.241,1.455,0.888c0.157,0.647-0.241,1.299-0.888,1.455c-2.038,0.493-3.761,1.849-4.726,3.721   c-0.214,0.415-0.636,0.653-1.072,0.653c-0.186,0-0.375-0.043-0.552-0.135C35.272,15.461,35.04,14.734,35.345,14.142z"></path>
            <path d="M78.244,54.911c-5.652,0-10.235,4.582-10.235,10.235S72.591,75.38,78.244,75.38c5.653,0,10.235-4.582,10.235-10.235   S83.896,54.911,78.244,54.911z M76.784,59.139c-1.741,0.421-3.212,1.58-4.037,3.178c-0.183,0.355-0.543,0.558-0.916,0.558   c-0.159,0-0.32-0.037-0.471-0.115c-0.505-0.261-0.704-0.882-0.443-1.387c1.099-2.13,3.061-3.674,5.383-4.236   c0.552-0.134,1.109,0.206,1.243,0.759C77.677,58.449,77.337,59.005,76.784,59.139z"></path>
        </g>
    </g>
    <g id="SvgjsG1397"
       transform="matrix(3.155173616210504,0,0,3.155173616210504,124.0631650968089,6.200399648997205)" fill="#ffffff">
        <path d="M3.86 7.859999999999999 l-0.000019531 2.66 l2.58 0 l0 1.56 l-2.58 0 l0 4.56 c0 0.61334 0.08666 1.0867 0.26 1.42 s0.54 0.5 1.1 0.5 c0.53334 0 0.96 -0.09334 1.28 -0.28 l0 1.64 c-0.34666 0.18666 -0.89332 0.29332 -1.64 0.31998 c-0.72 0 -1.2767 -0.11 -1.67 -0.33 s-0.68 -0.52666 -0.86 -0.92 s-0.27 -1.01 -0.27 -1.85 l0 -5.06 l-2.08 0 l0 -1.56 l2.08 0 l0 -2.66 l1.8 0 z M13.440000000000001 10.28 c0.33334 0 0.6 0.04 0.8 0.12 l-0.08 1.94 c-0.34666 -0.09334 -0.64666 -0.14 -0.9 -0.14 c-1.7733 0 -2.6734 0.98666 -2.7 2.96 l0 4.84 l-1.8 0 l0 -9.48 l1.8 0 l0 1.46 l0.04 0 c0.24 -0.50666 0.62666 -0.91666 1.16 -1.23 s1.0933 -0.47 1.68 -0.47 z M19.96 10.28 c1.2 0 2.15 0.27328 2.85 0.81994 s1.07 1.3067 1.11 2.28 l0 5.08 c0 0.48 0.02666 0.99334 0.08 1.54 l-1.6 0 c-0.04 -0.42666 -0.06 -0.90666 -0.06 -1.44 l-0.04 0 c-0.41334 0.61334 -0.89 1.0467 -1.43 1.3 s-1.17 0.38 -1.89 0.38 c-0.97334 0 -1.7633 -0.26 -2.37 -0.78 s-0.91 -1.2067 -0.91 -2.06 c0 -1.08 0.45334 -1.8967 1.36 -2.45 s2.1866 -0.83 3.84 -0.83 l1.34 0 l0 -0.34 c0 -0.64 -0.21 -1.1433 -0.63 -1.51 s-0.97 -0.55 -1.65 -0.55 c-0.50666 0 -0.95 0.07666 -1.33 0.23 s-0.83 0.43668 -1.35 0.85002 l-1.08 -1.12 c1.0267 -0.90666 2.28 -1.3733 3.76 -1.4 z M17.5 17.259999999999998 c0 1.0267 0.68002 1.54 2.04 1.54 c0.81334 0 1.4633 -0.24334 1.95 -0.73 s0.73666 -1.19 0.75 -2.11 l0 -0.52 l-1.02 0 c-1.1733 0 -2.0866 0.15 -2.74 0.45 s-0.98 0.75666 -0.98 1.37 z M31.04 10.3 c1.5067 0 2.72 0.5 3.64 1.5 l-1.36 1.24 c-0.65334 -0.70666 -1.44 -1.06 -2.36 -1.06 c-0.88 0 -1.5933 0.31334 -2.14 0.94 s-0.82 1.4333 -0.82 2.42 c0 0.93334 0.28666 1.7 0.86 2.3 s1.3067 0.90666 2.2 0.92 c0.94666 0 1.7133 -0.35334 2.3 -1.06 l1.28 1.28 c-0.85334 0.97334 -2.0534 1.46 -3.6 1.46 c-1.4533 0 -2.6366 -0.45334 -3.55 -1.36 s-1.3833 -2.1 -1.41 -3.58 c0.01334 -1.5067 0.48334 -2.7134 1.41 -3.62 s2.11 -1.3667 3.55 -1.38 z M40.52 10.28 c1.4533 0 2.5834 0.45664 3.39 1.37 s1.2167 2.17 1.23 3.77 l0 0.5 l-7.6 0 c0 0.77334 0.31 1.4233 0.93 1.95 s1.3767 0.79666 2.27 0.81 c0.98666 0 1.8533 -0.47334 2.6 -1.42 l1.36 1.04 c-1.0133 1.2933 -2.4134 1.94 -4.2 1.94 c-1.4533 0 -2.6234 -0.46334 -3.51 -1.39 s-1.3433 -2.1234 -1.37 -3.59 c0 -1.4133 0.45666 -2.59 1.37 -3.53 s2.09 -1.4233 3.53 -1.45 z M43.22 14.48 c-0.02666 -0.89334 -0.28 -1.5767 -0.76 -2.05 s-1.14 -0.71 -1.98 -0.71 c-0.56 0 -1.0633 0.13666 -1.51 0.41 s-0.79666 0.62668 -1.05 1.06 s-0.38 0.86334 -0.38 1.29 l5.68 0 z M48.72 17.48 c0.37334 0 0.68664 0.13342 0.93998 0.40008 s0.38 0.57332 0.38 0.91998 c0 0.38666 -0.13334 0.70332 -0.4 0.94998 s-0.57332 0.37 -0.91998 0.37 s-0.65332 -0.12666 -0.91998 -0.38 s-0.4 -0.56668 -0.4 -0.94002 s0.13334 -0.68668 0.4 -0.94002 s0.57332 -0.38 0.91998 -0.38 z M57.62 10.28 c1.3733 0 2.36 0.58666 2.96 1.76 c0.30666 -0.56 0.72666 -0.99334 1.26 -1.3 s1.1133 -0.46 1.74 -0.46 c2.3866 0 3.5866 1.3733 3.6 4.12 l0 5.6 l-1.8 0 l0 -5.38 c0 -0.93334 -0.16666 -1.61 -0.5 -2.03 s-0.84668 -0.63 -1.54 -0.63 c-0.81334 0 -1.42 0.24666 -1.82 0.74 s-0.6 1.1733 -0.6 2.04 l0 5.26 l-1.8 0 l0 -5.1 c0 -1.12 -0.16 -1.89 -0.48 -2.31 s-0.82666 -0.63 -1.52 -0.63 c-0.74666 0 -1.3433 0.28666 -1.79 0.86 s-0.67 1.3 -0.67 2.18 l0 5 l-1.8 0 l0 -9.48 l1.68 0 l0 1.48 l0.04 0 c0.2 -0.46666 0.59666 -0.87 1.19 -1.21 s1.21 -0.51 1.85 -0.51 z M74.47999999999999 10.28 c1.4 0 2.5866 0.48338 3.56 1.45 s1.4667 2.1434 1.48 3.53 c0 1.4 -0.48666 2.5734 -1.46 3.52 s-2.1666 1.4333 -3.58 1.46 c-1.3867 0 -2.5666 -0.48 -3.54 -1.44 s-1.4733 -2.14 -1.5 -3.54 c0 -1.3733 0.48334 -2.54 1.45 -3.5 s2.1634 -1.4533 3.59 -1.48 z M71.35999999999999 15.26 c0 0.97334 0.28664 1.7633 0.85998 2.37 s1.3267 0.91666 2.26 0.93 c0.94666 0 1.7 -0.30334 2.26 -0.91 s0.84666 -1.4033 0.86 -2.39 c0 -0.97334 -0.28 -1.7633 -0.84 -2.37 s-1.3267 -0.91666 -2.3 -0.93 c-0.94666 0 -1.7 0.31334 -2.26 0.94 s-0.84 1.4133 -0.84 2.36 z M86.11999999999999 10.28 c1.4533 0 2.5834 0.45664 3.39 1.37 s1.2167 2.17 1.23 3.77 l0 0.5 l-7.6 0 c0 0.77334 0.31 1.4233 0.93 1.95 s1.3767 0.79666 2.27 0.81 c0.98666 0 1.8533 -0.47334 2.6 -1.42 l1.36 1.04 c-1.0133 1.2933 -2.4134 1.94 -4.2 1.94 c-1.4533 0 -2.6234 -0.46334 -3.51 -1.39 s-1.3433 -2.1234 -1.37 -3.59 c0 -1.4133 0.45666 -2.59 1.37 -3.53 s2.09 -1.4233 3.53 -1.45 z M88.82 14.48 c-0.02666 -0.89334 -0.28 -1.5767 -0.76 -2.05 s-1.14 -0.71 -1.98 -0.71 c-0.56 0 -1.0633 0.13666 -1.51 0.41 s-0.79666 0.62668 -1.05 1.06 s-0.38 0.86334 -0.38 1.29 l5.68 0 z"></path>
    </g>
</svg>