<svg xmlns="http://www.w3.org/2000/svg" width="104.57" height="101.56"
     viewBox="0 0 104.57 101.56" class="css-1j8o68f">
    <defs id="SvgjsDefs1394"></defs>
    <g id="SvgjsG1395" transform="matrix(1,0,0,1,0,0)" fill="#a9d2ff">
        <rect xmlns="http://www.w3.org/2000/svg" width="104" height="101" rx="10" ry="10"></rect>
    </g>
    <g id="SvgjsG1396"
       transform="matrix(0.7070707070707071,0,0,0.7070707070707071,16.464646464646464,15.3495961969549)" fill="#6730ec">
        <g xmlns="http://www.w3.org/2000/svg">
            <path d="M34.339,34.648C18.135,34.648,5,47.783,5,63.987C5,80.19,18.135,93.326,34.339,93.326   c16.204,0,29.339-13.136,29.339-29.339C63.678,47.783,50.543,34.648,34.339,34.648z M30.156,46.769   c-4.99,1.207-9.208,4.528-11.572,9.11c-0.524,1.016-1.556,1.599-2.626,1.599c-0.456,0-0.918-0.106-1.352-0.329   c-1.449-0.747-2.018-2.528-1.27-3.977c3.149-6.105,8.773-10.531,15.431-12.142c1.581-0.383,3.179,0.59,3.564,2.175   C32.715,44.789,31.741,46.385,30.156,46.769z"></path>
            <path d="M76.652,13.612c-10.134,0-18.348,8.215-18.348,18.348c0,10.133,8.215,18.348,18.348,18.348S95,42.094,95,31.96   C95,21.827,86.785,13.612,76.652,13.612z M74.036,21.192c-3.121,0.755-5.759,2.832-7.237,5.697c-0.328,0.636-0.973,1-1.642,1   c-0.285,0-0.574-0.066-0.845-0.206c-0.906-0.467-1.262-1.581-0.794-2.487c1.969-3.818,5.487-6.586,9.65-7.593   c0.989-0.239,1.988,0.369,2.229,1.36C75.636,19.954,75.027,20.953,74.036,21.192z"></path>
            <path d="M43.922,30.541c6.618,0,11.982-5.365,11.982-11.982c0-6.618-5.365-11.982-11.982-11.982S31.94,11.941,31.94,18.559   C31.94,25.177,37.305,30.541,43.922,30.541z M35.345,14.142c1.286-2.493,3.583-4.301,6.302-4.959   c0.646-0.156,1.298,0.241,1.455,0.888c0.157,0.647-0.241,1.299-0.888,1.455c-2.038,0.493-3.761,1.849-4.726,3.721   c-0.214,0.415-0.636,0.653-1.072,0.653c-0.186,0-0.375-0.043-0.552-0.135C35.272,15.461,35.04,14.734,35.345,14.142z"></path>
            <path d="M78.244,54.911c-5.652,0-10.235,4.582-10.235,10.235S72.591,75.38,78.244,75.38c5.653,0,10.235-4.582,10.235-10.235   S83.896,54.911,78.244,54.911z M76.784,59.139c-1.741,0.421-3.212,1.58-4.037,3.178c-0.183,0.355-0.543,0.558-0.916,0.558   c-0.159,0-0.32-0.037-0.471-0.115c-0.505-0.261-0.704-0.882-0.443-1.387c1.099-2.13,3.061-3.674,5.383-4.236   c0.552-0.134,1.109,0.206,1.243,0.759C77.677,58.449,77.337,59.005,76.784,59.139z"></path>
        </g>
    </g>
</svg>